<?xml version="1.0" standalone="no"?>
<!DOCTYPE svg PUBLIC "-//W3C//DTD SVG 20010904//EN"
 "http://www.w3.org/TR/2001/REC-SVG-20010904/DTD/svg10.dtd">
<svg version="1.0" xmlns="http://www.w3.org/2000/svg"
 width="180.000000pt" height="180.000000pt" viewBox="0 0 180.000000 180.000000"
 preserveAspectRatio="xMidYMid meet">
<metadata>
Created by potrace 1.11, written by Peter Selinger 2001-2013
</metadata>
<g transform="translate(0.000000,180.000000) scale(0.100000,-0.100000)"
fill="#000000" stroke="none">
<path d="M1210 1764 c-33 -32 -71 -38 -209 -30 -130 7 -167 0 -220 -42 -20
-15 -55 -34 -78 -40 -95 -28 -177 -122 -214 -244 -27 -88 -23 -163 13 -235 15
-28 24 -53 22 -56 -15 -14 -12 -63 5 -102 24 -53 56 -85 111 -110 l42 -19 -32
-28 c-18 -15 -74 -49 -125 -75 -89 -45 -94 -47 -113 -30 -10 9 -33 17 -50 17
-35 0 -45 23 -15 34 11 5 13 10 6 17 -8 8 -17 8 -31 0 -19 -10 -25 -5 -60 56
-21 38 -66 120 -99 183 -75 143 -96 180 -105 180 -8 0 -21 -71 -23 -125 -4
-121 75 -279 169 -336 30 -18 30 -19 9 -25 -19 -5 -20 -9 -10 -25 10 -17 13
-17 29 -2 17 15 19 15 33 -3 9 -11 12 -30 9 -46 -3 -14 0 -29 5 -33 6 -3 8
-17 5 -29 -4 -16 0 -25 10 -29 9 -4 16 -15 16 -26 0 -20 18 -31 50 -31 10 0
21 -8 24 -17 4 -10 14 -29 24 -41 18 -24 18 -24 50 -5 l31 19 -25 44 c-15 27
-21 46 -15 48 6 2 11 10 11 18 0 9 11 14 30 15 17 1 33 2 38 3 54 14 90 29
118 51 l35 27 -5 -39 c-2 -21 -5 -50 -5 -65 -1 -21 -6 -28 -22 -28 -19 0 -20
-5 -18 -75 2 -73 3 -75 25 -71 28 5 27 6 13 -31 -14 -37 -20 -143 -9 -163 6
-12 0 -23 -25 -43 -63 -50 -54 -115 18 -132 56 -13 161 -14 190 -2 27 12 28
15 31 97 2 62 9 100 26 140 27 63 37 72 61 60 25 -14 39 -64 45 -170 4 -52 9
-98 13 -103 11 -12 141 -34 185 -31 88 6 116 26 116 83 0 44 -24 71 -63 71
-24 0 -27 4 -27 33 0 48 -25 142 -45 173 -13 21 -14 28 -4 34 7 5 14 34 17 68
4 54 2 60 -17 65 -15 4 -21 13 -22 34 0 15 -2 38 -3 51 -3 27 -4 27 42 -3 36
-23 116 -48 126 -38 2 3 11 -6 20 -19 15 -22 14 -27 -4 -64 l-21 -39 22 -18
c32 -26 45 -21 70 23 16 28 29 40 45 40 23 0 48 22 37 34 -4 3 3 14 16 22 18
13 20 18 10 31 -10 11 -10 16 0 23 8 5 11 18 7 36 -3 18 0 36 9 48 14 18 16
18 34 2 17 -16 19 -16 25 0 4 10 -1 22 -11 30 -10 7 -13 14 -7 14 37 1 136
133 159 214 26 88 23 229 -5 259 -4 5 -57 -90 -117 -210 -91 -179 -114 -217
-129 -215 -11 2 -23 5 -28 5 -19 4 -16 -22 4 -28 28 -9 15 -25 -19 -25 -16 0
-40 -9 -53 -20 -14 -10 -28 -17 -31 -13 -4 3 -45 23 -93 44 -87 39 -118 59
-135 91 -7 13 2 22 46 47 31 17 64 46 75 64 21 34 26 87 10 116 -6 12 -5 33 4
62 7 24 13 83 12 131 -2 77 -6 94 -38 158 -27 56 -32 73 -21 77 24 9 65 91 66
132 1 38 -29 132 -41 130 -4 0 -18 -11 -32 -25z"/>
</g>
</svg>
